<svg width="361" height="404" viewBox="0 0 361 404" fill="none" xmlns="http://www.w3.org/2000/svg">
<path d="M220.871 177.443C249.697 225.971 270.984 272.666 282.122 308.895C287.697 327.029 290.686 342.404 290.869 354.014C291.055 365.843 288.33 372.788 283.698 375.539C279.067 378.291 271.665 377.361 261.366 371.539C251.258 365.824 239.186 355.845 225.929 342.274C199.442 315.163 168.619 274.132 139.793 225.604C110.967 177.076 89.6801 130.38 78.5422 94.1507C72.9673 76.0169 69.9781 60.6421 69.7954 49.0321C69.6092 37.2028 72.3335 30.258 76.9654 27.5067C81.5973 24.7553 88.9991 25.6851 99.2981 31.5074C109.406 37.2217 121.478 47.2015 134.735 60.7718C161.222 87.8835 192.045 128.915 220.871 177.443Z" stroke="#EA430F" stroke-width="5"/>
<path d="M213.673 234.864C173.762 274.776 133.764 306.93 101.405 326.665C85.2087 336.544 71.0474 343.235 59.8417 346.278C48.4243 349.378 41.022 348.452 37.2125 344.643C33.403 340.833 32.4771 333.431 35.5773 322.013C38.6199 310.808 45.3114 296.646 55.1896 280.45C74.9251 248.091 107.079 208.093 146.991 168.182C186.902 128.27 226.899 96.1162 259.258 76.3807C275.455 66.5025 289.616 59.811 300.822 56.7684C312.24 53.6682 319.642 54.5941 323.451 58.4036C327.261 62.2131 328.187 69.6154 325.087 81.0328C322.044 92.2385 315.352 106.4 305.474 122.597C285.739 154.956 253.585 194.953 213.673 234.864Z" stroke="#EA430F" stroke-width="5"/>
<circle cx="187.5" cy="219.5" r="121.5" fill="#1D1471" fill-opacity="0.5"/>
<circle cx="187.5" cy="219.5" r="89.5" fill="#1D1471"/>
<rect x="172.379" y="97.1744" width="40.7997" height="40.7997" transform="rotate(24.1005 172.379 97.1744)" fill="#EA430F" stroke="#B73208" stroke-width="1.77778"/>
<rect x="154.993" y="136.04" width="40.7997" height="40.7997" transform="rotate(24.1005 154.993 136.04)" fill="#EA430F" stroke="#B73208" stroke-width="1.77778"/>
<rect x="137.607" y="174.906" width="40.7997" height="40.7997" transform="rotate(24.1005 137.607 174.906)" fill="#EA430F" stroke="#B73208" stroke-width="1.77778"/>
<rect x="176.473" y="192.293" width="40.7997" height="40.7997" transform="rotate(24.1005 176.473 192.293)" fill="#EA430F" stroke="#B73208" stroke-width="1.77778"/>
<rect x="215.339" y="209.679" width="40.7997" height="40.7997" transform="rotate(24.1005 215.339 209.679)" fill="#EA430F" stroke="#B73208" stroke-width="1.77778"/>
<rect x="197.953" y="248.545" width="40.7997" height="40.7997" transform="rotate(24.1005 197.953 248.545)" fill="#EA430F" stroke="#B73208" stroke-width="1.77778"/>
<rect x="180.567" y="287.411" width="40.7997" height="40.7997" transform="rotate(24.1005 180.567 287.411)" fill="#EA430F" stroke="#B73208" stroke-width="1.77778"/>
<path d="M92.2026 288.932C92.2026 291.33 91.6523 293.532 90.5516 295.536C89.4509 297.502 87.7605 299.094 85.4805 300.313C83.2005 301.531 80.3702 302.141 76.9894 302.141H70.7391V317H60.6559V275.606H76.9894C80.2915 275.606 83.0826 276.176 85.3626 277.316C87.6426 278.456 89.3526 280.028 90.4926 282.033C91.6326 284.038 92.2026 286.338 92.2026 288.932ZM76.2229 294.121C78.1491 294.121 79.5839 293.669 80.5274 292.765C81.4709 291.861 81.9426 290.583 81.9426 288.932C81.9426 287.281 81.4709 286.004 80.5274 285.099C79.5839 284.195 78.1491 283.743 76.2229 283.743H70.7391V294.121H76.2229ZM133.303 275.606V317H123.22V299.959H107.535V317H97.452V275.606H107.535V291.822H123.22V275.606H133.303ZM176.08 275.606L161.751 303.32V317H151.668V303.32L137.339 275.606H148.779L156.798 292.942L164.758 275.606H176.08ZM209.92 275.606V283.684H198.953V317H188.869V283.684H177.902V275.606H209.92ZM234.557 317.413C230.666 317.413 227.088 316.509 223.826 314.7C220.602 312.892 218.027 310.376 216.101 307.153C214.214 303.89 213.271 300.234 213.271 296.185C213.271 292.136 214.214 288.5 216.101 285.276C218.027 282.053 220.602 279.537 223.826 277.729C227.088 275.92 230.666 275.016 234.557 275.016C238.449 275.016 242.007 275.92 245.23 277.729C248.493 279.537 251.048 282.053 252.896 285.276C254.783 288.5 255.726 292.136 255.726 296.185C255.726 300.234 254.783 303.89 252.896 307.153C251.009 310.376 248.454 312.892 245.23 314.7C242.007 316.509 238.449 317.413 234.557 317.413ZM234.557 308.214C237.859 308.214 240.493 307.113 242.459 304.912C244.464 302.711 245.466 299.802 245.466 296.185C245.466 292.529 244.464 289.62 242.459 287.458C240.493 285.257 237.859 284.156 234.557 284.156C231.216 284.156 228.543 285.237 226.538 287.399C224.573 289.561 223.59 292.49 223.59 296.185C223.59 299.841 224.573 302.77 226.538 304.971C228.543 307.133 231.216 308.214 234.557 308.214ZM298.366 317H288.283L271.419 291.468V317H261.336V275.606H271.419L288.283 301.256V275.606H298.366V317ZM320.653 317.413C317.626 317.413 314.913 316.921 312.515 315.939C310.117 314.956 308.191 313.501 306.737 311.575C305.322 309.649 304.575 307.33 304.496 304.617H315.228C315.385 306.15 315.916 307.33 316.82 308.155C317.724 308.941 318.903 309.334 320.358 309.334C321.852 309.334 323.031 309 323.896 308.332C324.761 307.624 325.193 306.661 325.193 305.443C325.193 304.421 324.839 303.575 324.132 302.907C323.463 302.239 322.618 301.689 321.596 301.256C320.613 300.824 319.198 300.332 317.351 299.782C314.677 298.956 312.496 298.131 310.805 297.305C309.115 296.48 307.661 295.261 306.442 293.65C305.223 292.038 304.614 289.935 304.614 287.34C304.614 283.488 306.009 280.48 308.801 278.318C311.592 276.117 315.228 275.016 319.709 275.016C324.269 275.016 327.945 276.117 330.736 278.318C333.527 280.48 335.021 283.507 335.217 287.399H324.309C324.23 286.063 323.739 285.021 322.834 284.274C321.93 283.488 320.771 283.095 319.355 283.095C318.137 283.095 317.154 283.429 316.407 284.097C315.66 284.726 315.287 285.65 315.287 286.868C315.287 288.205 315.916 289.247 317.174 289.994C318.432 290.741 320.397 291.546 323.07 292.411C325.743 293.315 327.905 294.18 329.557 295.006C331.247 295.831 332.701 297.03 333.92 298.603C335.139 300.175 335.748 302.2 335.748 304.676C335.748 307.035 335.139 309.177 333.92 311.103C332.741 313.03 331.011 314.563 328.731 315.703C326.451 316.843 323.758 317.413 320.653 317.413Z" fill="white"/>
</svg>
